<?xml version="1.0" standalone="no"?>
<!DOCTYPE svg PUBLIC "-//W3C//DTD SVG 1.1//EN" "http://www.w3.org/Graphics/SVG/1.1/DTD/svg11.dtd" >
<svg xmlns="http://www.w3.org/2000/svg">
<metadata>
Created by FontForge 20120731 at Mon May 29 14:35:57 2017
 By admin
</metadata>
<defs>
<font id="iconfont" horiz-adv-x="1024" >
  <font-face 
    font-family="iconfont"
    font-weight="500"
    font-stretch="normal"
    units-per-em="1024"
    panose-1="2 0 6 3 0 0 0 0 0 0"
    ascent="896"
    descent="-128"
    x-height="792"
    bbox="0 -212 1291 896"
    underline-thickness="0"
    underline-position="0"
    unicode-range="U+0078-E98A"
  />
<missing-glyph 
 />
    <glyph glyph-name=".notdef" 
 />
    <glyph glyph-name=".notdef" 
 />
    <glyph glyph-name=".null" horiz-adv-x="0" 
 />
    <glyph glyph-name="nonmarkingreturn" horiz-adv-x="341" 
 />
    <glyph glyph-name="x" unicode="x" horiz-adv-x="1001" 
d="M281 543q-27 -1 -53 -1h-83q-18 0 -36.5 -6t-32.5 -18.5t-23 -32t-9 -45.5v-76h912v41q0 16 -0.5 30t-0.5 18q0 13 -5 29t-17 29.5t-31.5 22.5t-49.5 9h-133v-97h-438v97zM955 310v-52q0 -23 0.5 -52t0.5 -58t-10.5 -47.5t-26 -30t-33 -16t-31.5 -4.5q-14 -1 -29.5 -0.5
t-29.5 0.5h-32l-45 128h-439l-44 -128h-29h-34q-20 0 -45 1q-25 0 -41 9.5t-25.5 23t-13.5 29.5t-4 30v167h911zM163 247q-12 0 -21 -8.5t-9 -21.5t9 -21.5t21 -8.5q13 0 22 8.5t9 21.5t-9 21.5t-22 8.5zM316 123q-8 -26 -14 -48q-5 -19 -10.5 -37t-7.5 -25t-3 -15t1 -14.5
t9.5 -10.5t21.5 -4h37h67h81h80h64h36q23 0 34 12t2 38q-5 13 -9.5 30.5t-9.5 34.5q-5 19 -11 39h-368zM336 498v228q0 11 2.5 23t10 21.5t20.5 15.5t34 6h188q31 0 51.5 -14.5t20.5 -52.5v-227h-327z" />
    <glyph glyph-name="camera" unicode="&#xe665;" 
d="M512 160q-79 0 -135.5 56.5t-56.5 135.5t56.5 135.5t135.5 56.5t135.5 -56.5t56.5 -135.5t-56.5 -135.5t-135.5 -56.5zM512 480q-53 0 -90.5 -37.5t-37.5 -90.5t37.5 -90.5t90.5 -37.5t90.5 37.5t37.5 90.5t-37.5 90.5t-90.5 37.5zM864 0h-704q-40 0 -68 28t-28 68v512
q0 40 28 68t68 28h96q13 0 22.5 -9.5t9.5 -22.5t-9.5 -22.5t-22.5 -9.5h-96q-13 0 -22.5 -9.5t-9.5 -22.5v-512q0 -13 9.5 -22.5t22.5 -9.5h704q13 0 22.5 9.5t9.5 22.5v512q0 13 -9.5 22.5t-22.5 9.5h-352q-13 0 -22.5 9.5t-9.5 22.5t9.5 22.5t22.5 9.5h352q40 0 68 -28
t28 -68v-512q0 -40 -28 -68t-68 -28zM816 560zM768 560q0 20 14 34t34 14t34 -14t14 -34t-14 -34t-34 -14t-34 14t-14 34zM480 768q0 -13 -9.5 -22.5t-22.5 -9.5h-128q-13 0 -22.5 9.5t-9.5 22.5v0q0 13 9.5 22.5t22.5 9.5h128q13 0 22.5 -9.5t9.5 -22.5v0z" />
    <glyph glyph-name="search" unicode="&#xe69d;" 
d="M384 812q-159 0 -271.5 -112.5t-112.5 -271.5t112.5 -271.5t271.5 -112.5t271.5 112.5t112.5 271.5t-112.5 271.5t-271.5 112.5zM384 172q-106 0 -181 75t-75 181t75 181t181 75t181 -75t75 -181t-75 -181t-181 -75zM724 -8l184 -184q20 -20 48 -20v0q28 0 48 20t20 48v1
q0 28 -20 48l-183 183q-20 20 -48 20h-1q-28 0 -48 -20t-20 -48v0q0 -28 20 -48z" />
    <glyph glyph-name="shoujihao" unicode="&#xe622;" 
d="M704 -146h-387q-43 0 -73.5 33t-30.5 79v668q0 46 30.5 78.5t73.5 32.5h387q43 0 73 -32.5t30 -78.5v-668q0 -46 -30 -79t-73 -33zM756 634q0 23 -15.5 39.5t-36.5 16.5h-387q-22 0 -37 -16.5t-15 -39.5v-28h491v28zM756 550h-491v-445h491v445zM756 49h-491v-83
q0 -23 15 -39.5t37 -16.5h387q21 0 36.5 16.5t15.5 39.5v83zM510 -62q-16 0 -27 12t-11 29.5t11 29.5t27 12t27.5 -12t11.5 -29.5t-11.5 -29.5t-27.5 -12z" />
    <glyph glyph-name="iconplane" unicode="&#xe601;" 
d="M960 197q0 16 -13 25l-312 228q-11 7 -24 5t-20.5 -12.5t-5.5 -23.5t12 -21l299 -218v-46q-88 36 -267 112q-16 7 -30.5 -2.5t-14.5 -26.5v-233l-55 22q-3 1 -7 1q-5 1 -10 1h-8q-5 -1 -9 -3q-5 -2 -55 -21v233q0 17 -14 26.5t-30 2.5q-181 -77 -268 -112v46l299 218
q13 10 13 26v172q0 20 5 32t12 19q8 7 16 11q11 5 19 7q9 2 14 2l11 1q6 -1 15 -3t20 -7q8 -4 15 -11t12 -19t5 -32v-41q0 -13 9.5 -22.5t22.5 -9.5t22.5 9.5t9.5 22.5v41q0 33 -10 56q-10 24 -26 40q-16 15 -34 23q-15 8 -30 11q-14 4 -28 5h-8h-10q-11 -1 -25.5 -4.5
t-30.5 -10.5q-18 -9 -34 -24q-16 -16 -25 -40q-11 -23 -11 -56v-156l-299 -218q-13 -9 -13 -25v-110q0 -17 15 -27q11 -7 50 7t247 102v-208l-71 -29q-12 -5 -17.5 -17t-0.5 -24q8 -20 30 -20q6 0 11 2q151 58 184 71l184 -71q12 -5 24 0.5t17 17.5t0 24t-17 17l-72 29v208
q208 -88 247 -102t51 -7q14 10 14 27v110z" />
    <glyph glyph-name="chips" unicode="&#xe7cf;" 
d="M512 711q81 0 144 -54t76 -135q26 8 52 8q75 0 126 -53q52 -51 52 -125q0 -69 -48 -121l42 -42q28 -28 43 -63v0q15 -36 15 -74v-53q0 -22 -13 -40q-15 -20 -38 -23h-4h-41v-15q0 -13 -9.5 -22.5t-22.5 -9.5h-2h-372h-374h-1q-13 0 -22.5 9.5t-9.5 22.5v15h-41h-4
q-23 3 -38 23q-12 17 -12 40v53q0 41 14 74h1q4 10 10.5 20.5t11.5 18t15 18.5t14.5 15.5l17 17l15.5 15.5q-48 52 -48 121q0 74 52 125q53 53 126 53q27 0 52 -8q12 81 75.5 135t145.5 54v0v0zM512 -45v0h100v147q0 8 6 13.5t13 5.5q9 0 14.5 -5.5t5.5 -13.5v-86h84
q2 3 2 8v69q0 22 -5.5 43t-12 35t-21.5 32.5t-24 28t-30 29.5t-30 29q-48 -26 -102 -26q-55 0 -104 26q-8 -9 -29 -29t-30 -29.5t-23.5 -28t-21.5 -32.5t-12 -35t-5 -43v-69v-5v-3h85v86q0 8 5.5 13.5t13.5 5.5t14 -5.5t6 -13.5v-147h101v0v0zM512 330v0q64 0 110.5 46
t46.5 111q0 66 -46 112t-111.5 46t-112 -46t-46.5 -112q0 -65 47 -111t112 -46v0v0zM170 -45v0h95q-17 5 -30 22q-14 20 -14 47v69q0 43 14 81q-42 3 -73 18q-5 -5 -21 -20t-23.5 -23t-18 -21.5t-15.5 -25.5q-9 -23 -9 -50v-51h56v58q0 8 6 13.5t14 5.5t13.5 -5.5t5.5 -13.5
v-104v0v0zM291 452v0q-7 4 -18 8q-16 5 -34 5q-49 0 -80 -34q-33 -31 -33 -79q0 -47 33 -79q32 -33 80 -33q21 0 36 5q10 14 23 27.5t31.5 31t25.5 24.5q-52 53 -64 124v0v0zM853 -45v0v104q0 8 5.5 13.5t13.5 5.5t14 -5.5t6 -13.5v-58h56v51q0 25 -9 50q-9 21 -29 41
l-49 49q-31 -15 -73 -18q14 -37 14 -81v-69q0 -26 -14 -47q-13 -17 -30 -22h95v0v0zM732 452v0q-13 -73 -64 -124q8 -8 25.5 -25t30.5 -30.5t24 -27.5q1 0 4 -1t6 -1.5t4 -0.5q14 -2 22 -2q48 0 80 33q34 32 34 79t-34 79q-32 34 -80 34q-18 0 -33 -5q-6 -2 -19 -8v0v0z
M732 452z" />
    <glyph glyph-name="down" unicode="&#xe98a;" 
d="M893 531l-358 -350q-8 -8 -18.5 -8t-17.5 8q-1 0 -1.5 0.5t-0.5 1.5l-6 3l-360 354q-8 8 -8 18.5t7.5 17.5t18 7t18.5 -7l349 -343l341 332q7 8 17.5 8t18 -7.5t7.5 -17.5t-7 -17z" />
    <glyph glyph-name="enterprise" unicode="&#xe62b;" horiz-adv-x="1449" 
d="M1098 481h-351v-39h351v39v0zM1098 383h-351v-39h351v39v0zM416 -26h663v39h-663v-39v0zM1098 578h-351v-39h351v39v0zM299 793v-722h897v722h-897zM1157 110h-819v644h819v-644v0zM689 578h-312v-234h312v234zM650 383h-234v156h234v-156z" />
    <glyph glyph-name="card" unicode="&#xe600;" 
d="M941 54h-858q-14 0 -23.5 9.5t-9.5 23.5v594q0 14 9.5 23.5t23.5 9.5h858q14 0 23.5 -9.5t9.5 -23.5v-594q0 -14 -9.5 -23.5t-23.5 -9.5v0zM116 120h792v528h-792v-528v0zM116 120zM809 450h-594q-14 0 -23.5 9.5t-9.5 23.5t9.5 23.5t23.5 9.5h594q14 0 23.5 -9.5
t9.5 -23.5t-9.5 -23.5t-23.5 -9.5v0zM809 450zM347 186h-132q-14 0 -23.5 9.5t-9.5 23t9.5 23.5t23.5 10h132q13 0 23 -10t10 -23.5t-9.5 -23t-23.5 -9.5v0zM347 186z" />
    <glyph glyph-name="ticket" unicode="&#xe607;" horiz-adv-x="1328" 
d="M1155 -127h-1019q-56 0 -96 40t-40 97v243q44 12 73 48.5t29 83.5t-29 83.5t-73 47.5v244q0 56 40 96t96 40h1019q56 0 96 -40t40 -96v-244q-45 -11 -73.5 -47.5t-28.5 -83.5t28.5 -83.5t73.5 -48.5v-243q0 -57 -40 -97t-96 -40v0zM1121 385q0 55 27.5 102.5t74.5 74.5
v164q0 42 -30 72t-72 30h-612v-85q0 -7 -4.5 -12t-11.5 -5h-34q-7 0 -12 5t-5 12v85h-272q-42 0 -72 -30t-30 -72v-164q46 -27 74 -74.5t28 -103t-28 -102.5t-74 -74v-164q0 -43 30 -73t72 -30h272v86q0 7 5 12t12 5h34q7 0 11.5 -5t4.5 -12v-86h612q42 0 72 30t30 73v164
q-47 27 -74.5 74t-27.5 103v0zM493 112h-34q-7 0 -12 5t-5 12v102q0 7 5 12t12 5h34q7 0 11.5 -5t4.5 -12v-102q0 -7 -4.5 -12t-11.5 -5v0zM493 316h-34q-7 0 -12 5t-5 12v103q0 7 5 12t12 5h34q7 0 11.5 -5t4.5 -12v-103q0 -7 -4.5 -12t-11.5 -5v0zM493 521h-34q-7 0 -12 5
t-5 12v102q0 7 5 12t12 5h34q7 0 11.5 -5t4.5 -12v-102q0 -7 -4.5 -12t-11.5 -5v0z" />
    <glyph glyph-name="baitiao" unicode="&#xe658;" 
d="M821 766h-400q-30 0 -52 -21.5t-22 -51.5v-328h38v328q0 15 10.5 24.5t25.5 9.5h400q15 0 24.5 -9.5t9.5 -24.5v-544h1q-7 -48 -42.5 -79t-83.5 -31q-53 0 -90.5 37.5t-37.5 89.5q0 48 31.5 83.5t75.5 42.5v35h-415q-68 0 -116 -47.5t-48 -115t48 -115t116 -47.5h453v2
q58 6 98.5 46.5t46.5 98.5h2v544q0 30 -21.5 51.5t-51.5 21.5zM294 41q-53 0 -90 37t-37 89.5t37 90t90 37.5h333q-61 -53 -61 -127q0 -39 16.5 -73.5t44.5 -53.5h-333z" />
    <glyph glyph-name="qrcode" unicode="&#xe6c6;" 
d="M320 832h-256v-256h256v256zM384 896v0v-384h-384v384h384zM128 768h128v-128h-128v128zM960 832h-256v-256h256v256zM1024 896v0v-384h-384v384h384zM768 768h128v-128h-128v128zM320 192h-256v-256h256v256zM384 256v0v-384h-384v384h384zM128 128h128v-128h-128v128z
M448 896h64v-64h-64v64zM512 832h64v-64h-64v64zM448 768h64v-64h-64v64zM512 704h64v-64h-64v64zM448 640h64v-64h-64v64zM512 576h64v-64h-64v64zM448 512h64v-64h-64v64zM448 384h64v-64h-64v64zM512 320h64v-64h-64v64zM448 256h64v-64h-64v64zM512 192h64v-64h-64v64z
M448 128h64v-64h-64v64zM512 64h64v-64h-64v64zM448 0h64v-64h-64v64zM512 -64h64v-64h-64v64zM960 384h64v-64h-64v64zM64 384h64v-64h-64v64zM128 448h64v-64h-64v64zM0 448h64v-64h-64v64zM256 448h64v-64h-64v64zM320 384h64v-64h-64v64zM384 448h64v-64h-64v64z
M576 384h64v-64h-64v64zM640 448h64v-64h-64v64zM704 384h64v-64h-64v64zM768 448h64v-64h-64v64zM832 384h64v-64h-64v64zM896 448h64v-64h-64v64zM960 256h64v-64h-64v64zM576 256h64v-64h-64v64zM640 320h64v-64h-64v64zM704 256h64v-64h-64v64zM832 256h64v-64h-64v64z
M896 320h64v-64h-64v64zM960 128h64v-64h-64v64zM576 128h64v-64h-64v64zM640 192h64v-64h-64v64zM768 192h64v-64h-64v64zM832 128h64v-64h-64v64zM896 192h64v-64h-64v64zM960 0h64v-64h-64v64zM640 64h64v-64h-64v64zM704 0h64v-64h-64v64zM768 64h64v-64h-64v64zM832 0
h64v-64h-64v64zM640 -64h64v-64h-64v64zM768 -64h64v-64h-64v64zM896 -64h64v-64h-64v64z" />
    <glyph glyph-name="right" unicode="&#xe664;" 
d="M87 388q0 -117 57.5 -215.5t156 -156t215.5 -57.5t215.5 57.5t156 156t57.5 215.5t-57.5 215.5t-156 156t-215.5 57.5t-215.5 -57.5t-156 -156t-57.5 -215.5zM127 388q0 106 52 195.5t141.5 141.5t195.5 52t195.5 -52t141.5 -141.5t52 -195.5t-52 -195.5t-141.5 -141.5
t-195.5 -52t-195.5 52t-141.5 141.5t-52 195.5zM449 504l123 -116l-123 -116q-6 -6 -6 -14.5t6.5 -14t15 -5.5t15.5 6l138 130q6 6 6 14t-6 14l-138 130q-7 6 -15.5 6t-15 -5.5t-6.5 -14t6 -14.5z" />
    <glyph glyph-name="position" unicode="&#xe623;" 
d="M678 555q0 -71 -50.5 -121t-121 -50t-120.5 50t-50 120.5t50 120.5t120.5 50t121 -50t50.5 -120v0zM848 555q0 92 -45.5 171t-124 124.5t-171.5 45.5t-171.5 -45.5t-124 -124.5t-45.5 -171q0 -73 22 -120l243 -516q10 -21 31 -34t45 -13t45 13t32 34l242 516
q22 47 22 120v0z" />
    <glyph glyph-name="train" unicode="&#xe81e;" 
d="M232 492h240q8 0 14 6t6 14v285q0 9 -6 15t-14 6h-240q-9 0 -15 -6t-6 -15v-285q0 -8 6 -14t15 -6zM252 777h199v-244h-199v244zM792 818h-240q-8 0 -14 -6t-6 -15v-285q0 -8 6 -14t14 -6h240q9 0 15 6t6 14v285q0 9 -6 15t-15 6zM772 533h-199v244h199v-244zM277.5 361
q-27.5 0 -47 -19.5t-19.5 -47t19.5 -47t47 -19.5t47 19.5t19.5 47t-19.5 47t-47 19.5zM277.5 269q-10.5 0 -18 7.5t-7.5 18t7.5 18t18 7.5t18 -7.5t7.5 -18t-7.5 -18t-18 -7.5zM746.5 361q-27.5 0 -47 -19.5t-19.5 -47t19.5 -47t47 -19.5t47 19.5t19.5 47t-19.5 47t-47 19.5
zM746.5 269q-10.5 0 -18 7.5t-7.5 18t7.5 18t18 7.5t18 -7.5t7.5 -18t-7.5 -18t-18 -7.5zM1015 -93l-231 231h86q8 0 14 6t6 14v646q0 38 -27 65t-65 27h-572q-38 0 -65 -27t-27 -65v-646q0 -8 6 -14t14 -6h86l-231 -231q-9 -10 -4 -22.5t19 -12.5h976q14 0 19 12.5t-4 22.5
zM175 179v625q0 21 15 36t36 15h572q21 0 36 -15t15 -36v-625h-674zM741 123h-458l15 15h428zM243 83h538l31 -31h-600zM171 11h682l27 -27h-736zM73 -87l31 31h816l31 -31h-878zM694 436q0 8 -6 14t-15 6h-438q-9 0 -15 -6t-6 -14t6 -14t15 -6h438q9 0 15 6t6 14zM787 416
q9 0 15 6t6 14t-6 14t-15 6h-44q-9 0 -15 -6t-6 -14t6 -14t15 -6h44zM410 758h-116q-9 0 -15 -6t-6 -14.5t6 -14t15 -5.5h116q8 0 14 5.5t6 14t-6 14.5t-14 6zM614 718h116q9 0 15 5.5t6 14t-6 14.5t-15 6h-116q-8 0 -14 -6t-6 -14.5t6 -14t14 -5.5z" />
    <glyph glyph-name="hotel" unicode="&#xe61b;" 
d="M475 592h97v-109h64v367q0 19 -13.5 32.5t-32.5 13.5h-453q-19 0 -32.5 -13.5t-13.5 -32.5v-932q0 -19 13.5 -32.5t32.5 -13.5h163v299h126v249q0 21 13.5 36.5t35.5 22.5v113v0zM475 804h97v-137h-97v137zM254 30h-97v138h97v-138zM254 232h-97v137h97v-137zM254 454
h-97v138h97v-138zM254 666h-97v138h97v-138zM416 232h-97v137h97v-137zM416 454h-97v138h97v-138zM416 666h-97v138h97v-138zM894 446h-384q-16 0 -27.5 -7.5t-11.5 -18.5v-522q0 -11 11.5 -18.5t27.5 -7.5h138v168h111v-168h135q16 0 27.5 7.5t11.5 18.5v522
q0 11 -11.5 18.5t-27.5 7.5zM609 -39h-82v77h82v-77zM609 74h-82v77h82v-77zM609 198h-82v78h82v-78zM609 318h-82v77h82v-77zM746 74h-82v77h82v-77zM746 198h-82v78h82v-78zM746 318h-82v77h82v-77zM879 -41h-83v77h83v-77zM879 74h-83v77h83v-77zM879 198h-83v78h83v-78z
M879 318h-83v77h83v-77z" />
    <glyph glyph-name="qianbao" unicode="&#xe625;" 
d="M751 581q-2 2 -45 23q2 3 8 8q46 43 61 86q4 11 12 38q5 36 -2 59t-28 41q-56 47 -129 17q-5 -2 -8 1q-45 42 -107.5 42t-107.5 -41q-4 -3 -8 -1q-36 16 -76 8q-39 -8 -63.5 -37.5t-19.5 -70.5q9 -74 59 -128q1 -1 21 -23l-2 -1t-3 -1q-128 -58 -208 -174t-91 -258
q-6 -95 13 -156q20 -62 68.5 -101.5t111.5 -39.5h306.5h306.5q96 0 152 82q19 27 33 89q1 4 2 5t2 1t1.5 9t0.5 28q0 117 -17 178q-57 210 -243 317zM959 81q-9 -59 -26 -84q-24 -35 -65.5 -55t-86.5 -20h-271h-270q-60 0 -107 31t-61 85q-14 56 -7 154q4 62 33.5 125.5
t74.5 116t99 95t112 68.5q0 1 -11 11t-23.5 22t-15.5 14q-24 28 -36.5 51t-16.5 55q-8 62 59 76q10 2 28 -2.5t32 -10t15 -4.5q39 37 94.5 37t94.5 -38q3 -3 8 -1q24 10 39.5 14t34.5 1.5t35 -16.5q18 -16 21.5 -32t-1.5 -41q-3 -9 -15.5 -31t-20.5 -33q-22 -29 -67 -73
l17.5 -9t38 -19.5t26.5 -14.5q47 -36 75.5 -61t59 -58t49.5 -70.5t31 -83.5q7 -26 10.5 -40.5t8.5 -38t6.5 -40.5t1.5 -38.5t-3 -41.5v0v0zM446 436q-3 4 -11.5 13t-15.5 16l-6 6h-50v-22t124 -128h-124v-49h124v-51h-124v-49h124v-100h50v100h125v50h-125v50h125v49h-125
l125 128v22h-50q-43 -42 -53 -52q-1 -1 -9.5 -10t-20 -21t-17.5 -17z" />
    <glyph glyph-name="game" unicode="&#xe62a;" horiz-adv-x="1113" 
d="M347 206zM258 206q0 -37 26 -63t63 -26t63 26t26 63t-26 63t-63 26t-63 -26t-26 -63zM784 518h-152q-6 0 -12 5.5t-6 11.5v205q0 20 12.5 32.5t32.5 12.5t32 -12.5t12 -32.5v-40q0 -50 30.5 -89t76.5 -49q63 -13 112 27.5t49 101.5v45q0 20 -12.5 32t-32.5 12t-32 -12
t-12 -32v-45q0 -20 -12.5 -32t-32.5 -12t-32.5 12t-12.5 32v45q0 50 -30 89t-76 49q-63 13 -112 -27.5t-49 -101.5v-205q0 -7 -5.5 -12.5t-11.5 -5.5h-147q-84 0 -159 -42t-120.5 -114.5t-45.5 -155.5q0 -132 90 -221.5t221 -89.5q72 0 125 26q52 23 98 23q52 0 93 -18
q60 -27 129 -27q41 0 63 5q110 20 183 110t66 210t-100.5 205t-219.5 85zM837 -12q-13 -5 -45 -5q-51 0 -93 18q-60 27 -129 27q-74 0 -134 -27q-35 -18 -89 -18q-94 0 -158 63.5t-64 159.5q0 87 71 155t165 68h431q94 0 158.5 -65t64.5 -158q0 -85 -53 -144.5t-125 -73.5z
M882 250h-27q-7 0 -12.5 6t-5.5 12v27q0 20 -12 32t-32.5 12t-32.5 -12t-12 -32v-27q0 -6 -5.5 -12t-12.5 -6h-27q-20 0 -32 -12t-12 -32t12 -32.5t32 -12.5h27q7 0 12.5 -5.5t5.5 -11.5v-27q0 -20 12 -32.5t32.5 -12.5t32.5 12.5t12 32.5v27q0 6 5.5 11.5t12.5 5.5h27
q20 0 32 12.5t12 32.5t-12 32t-32 12z" />
    <glyph glyph-name="oil-copy" unicode="&#xe602;" 
d="M512 896l-24.5 -24.5t-59.5 -62.5t-84.5 -94t-89.5 -111t-84.5 -120.5t-60 -115.5t-24.5 -103q0 -107 58 -197.5t156 -143t213 -52.5t213 52.5t156 143t58 197.5q0 44 -24.5 103t-60 115.5t-84.5 120.5t-89.5 111t-84.5 94t-59.5 62.5l-24.5 24.5v0zM512 -26
q-87 0 -161.5 41t-118.5 112t-44 155q0 47 33.5 113.5t80.5 127t95.5 114t81 85.5t33.5 32q13 -12 35 -33.5t78 -83t98.5 -117t77.5 -123.5t35 -115q0 -129 -94 -218.5t-230 -89.5zM580 122q-11 12 -28 12q-27 -5 -71 11.5t-77 45.5q-46 45 -46 96q0 17 -11 28.5t-28 11.5
t-28.5 -11.5t-11.5 -28.5q0 -91 68 -159q37 -37 91.5 -58.5t107.5 -21.5h12q17 0 28 11.5t11 28.5q-1 4 -3 11.5t-3 10.5t-4 6.5t-7 5.5z" />
    <glyph glyph-name="shoppingcart" unicode="&#xe609;" horiz-adv-x="1167" 
d="M1126 728q-22 29 -89 29h-822l-11 83q-4 35 -22.5 45t-61.5 10h-88q-17 0 -24.5 -13t-7.5 -27q0 -13 9 -24.5t26 -11.5h46q42 -1 51 -44l96 -635q5 -37 33.5 -59.5t69.5 -22.5h655q38 1 38 36q0 17 -10.5 27t-27.5 10h-638q-20 0 -32.5 11.5t-15.5 29.5l-8 55h632
q36 0 63.5 18.5t36.5 51.5l111 358q12 45 -9 73zM1047 618l-89 -288q-8 -30 -50 -30h-629l-52 383h770q43 0 54 -14q7 -9 -4 -51zM453 -52q0 -30 -21.5 -52t-52.5 -22t-52.5 22t-21.5 53v0q0 30 21.5 52t52.5 22t52.5 -22t21.5 -52v-1zM925 -52q0 -30 -22 -52t-52.5 -22
t-52.5 22t-22 53v0q0 30 22 52t52.5 22t52.5 -22t22 -52v-1z" />
  </font>
</defs>
</svg>
